<?xml version="1.0" encoding="UTF-8"?>
<svg version="1.1" xmlns="http://www.w3.org/2000/svg" width="1024" height="1024">
<path d="M0 0 C7.35494762 -0.06999824 14.70982156 -0.12306099 22.06503677 -0.15543652 C25.48162993 -0.17098758 28.89799258 -0.19202813 32.31445312 -0.22631836 C36.2564808 -0.26562883 40.19842032 -0.2797964 44.140625 -0.29296875 C45.95074066 -0.31619453 45.95074066 -0.31619453 47.79742432 -0.33988953 C61.53965723 -0.34257323 71.79183487 2.42825324 81.96484375 11.8125 C95.14778845 25.65891894 97.54873344 44.768831 98 63 C98.21934204 62.00818726 98.21934204 62.00818726 98.44311523 60.99633789 C99.10411032 58.01753377 99.77072745 55.04001597 100.4375 52.0625 C100.66759766 51.02158203 100.89769531 49.98066406 101.13476562 48.90820312 C101.35712891 47.91884766 101.57949219 46.92949219 101.80859375 45.91015625 C102.01282959 44.99371338 102.21706543 44.07727051 102.42749023 43.13305664 C103 41 103 41 104 40 C106.8116338 39.91138008 109.59858255 39.88477645 112.41015625 39.90234375 C113.25219101 39.9037587 114.09422577 39.90517365 114.96177673 39.90663147 C117.66205335 39.91224737 120.36224828 39.92480252 123.0625 39.9375 C124.88867068 39.94251295 126.71484266 39.94707621 128.54101562 39.95117188 C133.02737542 39.96222196 137.51367384 39.97949721 142 40 C142.33 41.98 142.66 43.96 143 46 C143.928125 45.195625 144.85625 44.39125 145.8125 43.5625 C150.14562869 39.80712181 154.15995455 39.87040561 159.6875 39.9375 C160.7403418 39.94426758 160.7403418 39.94426758 161.81445312 39.95117188 C163.54300538 39.96293073 165.27151365 39.98086546 167 40 C165.70516352 48.53318468 163.94212658 56.87269755 161.875 65.25 C161.59785156 66.38824219 161.32070313 67.52648437 161.03515625 68.69921875 C160.36062718 71.46711388 159.68219766 74.2339869 159 77 C157.92363281 76.81179688 156.84726562 76.62359375 155.73828125 76.4296875 C151.16552655 75.90408351 148.94253888 76.68085948 145 79 C142.92687386 82.8728344 142.73100919 86.28036543 142.68115234 90.6262207 C142.67110672 91.27068649 142.6610611 91.91515228 142.65071106 92.57914734 C142.61999064 94.69468348 142.60287552 96.81009372 142.5859375 98.92578125 C142.56721683 100.39838231 142.54764274 101.87097275 142.5272522 103.34355164 C142.47601977 107.20844242 142.43634672 111.07336795 142.39910889 114.93841553 C142.35195653 119.58166963 142.29039695 124.22475253 142.23126221 128.86786652 C142.14315829 135.91184157 142.07331694 142.95578561 142 150 C129.46 150 116.92 150 104 150 C104 125.91 104 101.82 104 77 C101.36 77 98.72 77 96 77 C95.47212891 78.45019531 95.47212891 78.45019531 94.93359375 79.9296875 C89.89763301 93.37565075 83.08780691 105.93617861 69.5 112.375 C60.04625831 116.05235907 52.62471051 116 42 116 C42 127.22 42 138.44 42 150 C28.47 150 14.94 150 1 150 C1 114.03 1 78.06 1 41 C-1.97 41 -4.94 41 -8 41 C-7.37961142 32.06989965 -5.46591609 23.5633656 -3.4375 14.875 C-3.10425591 13.42721253 -2.77156941 11.9792966 -2.43945312 10.53125 C-1.63271904 7.01933039 -0.81847428 3.5092045 0 0 Z M42 40 C42 51.88 42 63.76 42 76 C49.51111035 75.08688693 49.51111035 75.08688693 54 70 C57.11801674 64.13963118 58.0441358 58.36270695 56.49609375 51.89453125 C54.96485615 47.23081902 53.0061354 44.00460155 49 41 C46.69 40.67 44.38 40.34 42 40 Z M96 69 C97 72 97 72 97 72 Z " fill="#000000" transform="translate(123,423)"/>
<path d="M0 0 C7.65980319 1.04310328 15.12234864 2.65928323 22.625 4.5 C23.51413086 4.71358154 24.40326172 4.92716309 25.31933594 5.1472168 C26.1549707 5.35644775 26.99060547 5.56567871 27.8515625 5.78125 C28.60260254 5.96751953 29.35364258 6.15378906 30.12744141 6.34570312 C32 7 32 7 34 9 C33.86087036 10.79702759 33.86087036 10.79702759 33.30908203 12.99072266 C33.00854416 14.22177231 33.00854416 14.22177231 32.70193481 15.47769165 C32.35834427 16.80744522 32.35834427 16.80744522 32.0078125 18.1640625 C31.78302216 19.07127045 31.55823181 19.97847839 31.32662964 20.91317749 C30.60368959 23.81997875 29.86455313 26.72238579 29.125 29.625 C28.6330452 31.59087853 28.1421458 33.5570215 27.65234375 35.5234375 C26.4471365 40.35211579 25.22738497 45.17691346 24 50 C20.59548009 48.66056318 17.36600024 47.19815987 14.125 45.5 C5.57133587 41.24825199 -2.43047066 39.79797375 -12 41 C-14.57554658 42.432523 -15.36800339 43.48923598 -17 46 C-15.66395683 51.67818346 -11.62028485 53.96442056 -7 57 C-1.57622996 60.09459818 3.98360897 62.92838256 9.53320312 65.7890625 C21.66273388 72.15899537 29.82352435 79.16885461 34.875 92.3125 C39.09172621 107.00556461 37.08815158 122.59455682 30 136 C22.93055452 147.30053504 12.83531396 153.79129603 0.16235352 157.54418945 C-17.61420215 161.2913758 -36.20891496 157.28123515 -52.4375 150.0625 C-53.54931641 149.57716797 -53.54931641 149.57716797 -54.68359375 149.08203125 C-59.74182439 146.66787572 -59.74182439 146.66787572 -60.8203125 143.87792969 C-61.06329367 139.98626928 -60.14431504 136.57369071 -59.12890625 132.85546875 C-58.9277269 132.08568192 -58.72654755 131.31589508 -58.51927185 130.52278137 C-57.87706677 128.07490577 -57.22002971 125.63129871 -56.5625 123.1875 C-56.12336326 121.52434849 -55.68520108 119.86093934 -55.24804688 118.19726562 C-54.17663273 114.12843885 -53.09190317 110.06337408 -52 106 C-48.20379378 107.49551156 -44.54978839 109.16330855 -40.875 110.9375 C-32.08102742 114.99244339 -22.8464834 118.55563831 -13 117 C-9.71095979 115.68944108 -9.71095979 115.68944108 -8 113 C-7.59697098 109.48188593 -7.59697098 109.48188593 -9 106 C-13.13191889 102.06011932 -17.36413361 99.59701969 -22.5 97.1875 C-23.92062468 96.49495781 -25.33987179 95.7995835 -26.7578125 95.1015625 C-27.46711914 94.75254883 -28.17642578 94.40353516 -28.90722656 94.04394531 C-41.64962059 87.68761343 -54.24827561 80.70126215 -60 67 C-60.31710937 66.26523437 -60.63421875 65.53046875 -60.9609375 64.7734375 C-65.28238114 52.91920218 -63.95684726 39.40228332 -59 28 C-57.27046502 24.73531581 -55.3259984 21.86666631 -53 19 C-52.49855469 18.37480469 -51.99710937 17.74960937 -51.48046875 17.10546875 C-46.01958278 11.00681507 -38.03952381 6.61478389 -30 5 C-28.18013862 4.90865361 -26.35730744 4.8693448 -24.53515625 4.8671875 C-23.48779297 4.86589844 -22.44042969 4.86460937 -21.36132812 4.86328125 C-20.27271484 4.86714844 -19.18410156 4.87101562 -18.0625 4.875 C-16.43538086 4.86919922 -16.43538086 4.86919922 -14.77539062 4.86328125 C-13.72673828 4.86457031 -12.67808594 4.86585938 -11.59765625 4.8671875 C-10.16691772 4.86887939 -10.16691772 4.86887939 -8.70727539 4.87060547 C-6.04208308 4.99798863 -3.59749852 5.40599954 -1 6 C-0.67 4.02 -0.34 2.04 0 0 Z " fill="#2563EB" transform="translate(544,416)"/>
<path d="M0 0 C1.60279192 0.00015914 3.20558896 0.00585476 4.80834961 0.01586914 C5.65038437 0.01728409 6.49241913 0.01869904 7.35997009 0.02015686 C10.06024671 0.02577276 12.76044163 0.03832791 15.46069336 0.05102539 C17.28686404 0.05603834 19.11303602 0.06060161 20.93920898 0.06469727 C25.42559421 0.07489823 29.91180191 0.0944704 34.39819336 0.11352539 C34.89319336 9.02352539 34.89319336 9.02352539 35.39819336 18.11352539 C36.71819336 12.17352539 38.03819336 6.23352539 39.39819336 0.11352539 C55.13936474 -0.23888889 66.99934682 0.23055712 79.08569336 11.30102539 C88.42633196 21.21483955 91.89524619 36.8182264 92.39819336 50.11352539 C92.45813477 51.38196289 92.45813477 51.38196289 92.51928711 52.67602539 C92.9530166 70.22931304 89.15924115 86.72202605 77.14819336 99.86352539 C69.65647023 106.91359672 60.55473658 109.70130943 50.39819336 110.11352539 C38.58651279 109.2076851 38.58651279 109.2076851 34.39819336 107.11352539 C34.39819336 119.65352539 34.39819336 132.19352539 34.39819336 145.11352539 C21.85819336 145.11352539 9.31819336 145.11352539 -3.60180664 145.11352539 C-3.60180664 109.47352539 -3.60180664 73.83352539 -3.60180664 37.11352539 C-6.24180664 37.11352539 -8.88180664 37.11352539 -11.60180664 37.11352539 C-11.06823639 29.05592464 -9.46328566 21.396457 -7.60180664 13.55102539 C-7.32852539 12.36444336 -7.05524414 11.17786133 -6.77368164 9.95532227 C-4.47902704 0.14117451 -4.47902704 0.14117451 0 0 Z M34.39819336 37.11352539 C34.29915863 41.59751323 34.22664853 46.08091831 34.1784668 50.56567383 C34.15837737 52.09052624 34.1311002 53.61530187 34.09643555 55.13989258 C34.0477954 57.33442137 34.0251994 59.52793008 34.00756836 61.72290039 C33.98662109 63.04257812 33.96567383 64.36225586 33.9440918 65.72192383 C34.12763541 69.15050174 34.12763541 69.15050174 36.17651367 71.5402832 C38.89668147 73.46652071 41.12235279 73.74380978 44.43334961 73.55883789 C47.92452069 72.76759832 49.35129117 70.94306665 51.39819336 68.11352539 C54.61813871 60.29365811 54.31523582 51.88388573 51.38647461 44.02758789 C49.35331742 40.08985262 46.47095374 38.47111218 42.39819336 37.11352539 C41.00379672 37.04687163 39.60649461 37.0281434 38.21069336 37.05102539 C36.95256836 37.07165039 35.69444336 37.09227539 34.39819336 37.11352539 Z " fill="#000000" transform="translate(386.601806640625,462.886474609375)"/>
<path d="M0 0 C10.38501161 7.4890137 17.74258522 19.70457766 20.6875 32.1875 C20.90518441 33.53714333 21.09380145 34.89186686 21.25 36.25 C21.41048828 37.35021484 21.41048828 37.35021484 21.57421875 38.47265625 C23.83191314 55.56662805 21.39961784 73.89303762 11.375 88.25 C4.43394283 97.06178819 -4.50740756 103.89537987 -15.75 106.25 C-29.58757174 107.40778875 -41.90066458 106.80491938 -53.0390625 97.7578125 C-58.73668801 92.73661742 -63.35103349 87.47197435 -66.8125 80.6875 C-67.29847656 79.75808594 -67.78445313 78.82867188 -68.28515625 77.87109375 C-72.03839024 68.59309932 -73.2362938 59.7046125 -73.125 49.75 C-73.13660156 48.71230469 -73.14820313 47.67460938 -73.16015625 46.60546875 C-73.10644442 32.22860251 -68.64068795 16.43012548 -58.4609375 5.765625 C-41.6719864 -9.10677917 -19.33943618 -11.81675065 0 0 Z M-32.125 33.3125 C-37.1062282 42.31702789 -37.17610778 53.10733946 -34.4375 62.9375 C-33.42966144 66.11032511 -32.41972781 68.19685218 -29.75 70.25 C-26.65918012 70.64248506 -24.70288724 70.87637002 -21.75 70.25 C-17.05157213 66.16978633 -15.94610495 60.62872762 -15.44921875 54.6015625 C-15.24849407 42.88406689 -15.24849407 42.88406689 -20.109375 32.546875 C-22.49861743 30.65823575 -24.8551369 30.71487275 -27.81640625 30.83984375 C-30.01411344 31.14277922 -30.01411344 31.14277922 -32.125 33.3125 Z " fill="#2563EB" transform="translate(654.75,467.75)"/>
<path d="M0 0 C0.66902344 0.41378906 1.33804688 0.82757813 2.02734375 1.25390625 C2.72730469 1.67800781 3.42726563 2.10210937 4.1484375 2.5390625 C18.11809152 12.01941372 23.7042152 28.25107541 26.77734375 44.12890625 C27.18319609 50.82546988 27.02734375 57.54505534 27.02734375 64.25390625 C9.53734375 64.25390625 -7.95265625 64.25390625 -25.97265625 64.25390625 C-20.42232231 72.49949638 -20.42232231 72.49949638 -11.97265625 76.25390625 C-8.60053249 76.47424599 -5.22629285 76.43904687 -1.84765625 76.44140625 C-0.94789063 76.45365234 -0.048125 76.46589844 0.87890625 76.47851562 C6.40164613 76.49041808 11.4519826 75.94756752 16.83154297 74.68481445 C19.02734375 74.25390625 19.02734375 74.25390625 23.02734375 74.25390625 C21.52962167 86.1015585 18.7631486 97.64315049 16.02734375 109.25390625 C11.96624054 109.62541239 7.90339407 109.97278906 3.83984375 110.31640625 C2.70869141 110.42017578 1.57753906 110.52394531 0.41210938 110.63085938 C-15.17043094 111.91830573 -30.7846831 111.13078842 -43.6328125 101.28125 C-55.48982749 91.00780963 -63.64171871 77.14817657 -65.27246094 61.34936523 C-65.40849166 58.37282437 -65.44072055 55.42082388 -65.41015625 52.44140625 C-65.40185791 51.39114258 -65.39355957 50.34087891 -65.38500977 49.25878906 C-65.05258783 33.92242638 -60.33867558 20.75456918 -49.72265625 9.37890625 C-37.20532367 -2.41092324 -16.07384477 -8.1075456 0 0 Z M-24.28515625 29.44140625 C-26.81557352 33.65876836 -27.97265625 36.28300939 -27.97265625 41.25390625 C-21.70265625 41.25390625 -15.43265625 41.25390625 -8.97265625 41.25390625 C-10.29557246 32.95717703 -10.29557246 32.95717703 -14.97265625 27.25390625 C-19.26360604 26.48766522 -21.06788883 26.39804518 -24.28515625 29.44140625 Z " fill="#000000" transform="translate(349.97265625,463.74609375)"/>
<path d="M0 0 C0.66902344 0.41378906 1.33804688 0.82757813 2.02734375 1.25390625 C2.72730469 1.67800781 3.42726563 2.10210937 4.1484375 2.5390625 C18.11809152 12.01941372 23.7042152 28.25107541 26.77734375 44.12890625 C27.18319609 50.82546988 27.02734375 57.54505534 27.02734375 64.25390625 C9.53734375 64.25390625 -7.95265625 64.25390625 -25.97265625 64.25390625 C-20.42232231 72.49949638 -20.42232231 72.49949638 -11.97265625 76.25390625 C-8.60053249 76.47424599 -5.22629285 76.43904687 -1.84765625 76.44140625 C-0.94789063 76.45365234 -0.048125 76.46589844 0.87890625 76.47851562 C6.40164613 76.49041808 11.4519826 75.94756752 16.83154297 74.68481445 C19.02734375 74.25390625 19.02734375 74.25390625 23.02734375 74.25390625 C21.52962167 86.1015585 18.7631486 97.64315049 16.02734375 109.25390625 C8.99426321 110.3615489 2.00649418 110.50748463 -5.10668945 110.54907227 C-6.46682165 110.56055359 -7.82691015 110.58094455 -9.18676758 110.6105957 C-24.71605777 110.94749341 -36.80117298 107.7001322 -48.34375 97.0703125 C-60.20925921 84.88465464 -65.58256813 69.24817108 -65.41015625 52.44140625 C-65.40185791 51.39114258 -65.39355957 50.34087891 -65.38500977 49.25878906 C-65.05258783 33.92242638 -60.33867558 20.75456918 -49.72265625 9.37890625 C-37.20532367 -2.41092324 -16.07384477 -8.1075456 0 0 Z M-24.28515625 29.44140625 C-26.81557352 33.65876836 -27.97265625 36.28300939 -27.97265625 41.25390625 C-21.70265625 41.25390625 -15.43265625 41.25390625 -8.97265625 41.25390625 C-10.29557246 32.95717703 -10.29557246 32.95717703 -14.97265625 27.25390625 C-19.26360604 26.48766522 -21.06788883 26.39804518 -24.28515625 29.44140625 Z " fill="#2563EB" transform="translate(882.97265625,463.74609375)"/>
<path d="M0 0 C13.86 0 27.72 0 42 0 C44.97 17.16 47.94 34.32 51 52 C53.58955028 36.38359586 53.58955028 36.38359586 56.17553711 20.76660156 C56.50101022 18.80792125 56.82660421 16.84926102 57.15234375 14.890625 C57.40377136 13.36671143 57.40377136 13.36671143 57.66027832 11.81201172 C57.90372986 10.35093994 57.90372986 10.35093994 58.15209961 8.86035156 C58.29199814 8.01651917 58.43189667 7.17268677 58.57603455 6.30328369 C58.96597807 4.18483144 59.47756814 2.08972745 60 0 C73.53 0 87.06 0 101 0 C99.68661802 7.22360088 98.29053269 14.24773057 96.47802734 21.33666992 C96.23389603 22.3038797 95.98976471 23.27108948 95.73823547 24.26760864 C94.94093764 27.42278472 94.13848844 30.57662518 93.3359375 33.73046875 C92.7779693 35.93427048 92.22032668 38.13815467 91.66299438 40.34211731 C90.20311214 46.11155348 88.73884 51.87986653 87.27362061 57.64794922 C85.51228397 64.58562729 83.75645631 71.52470142 81.99969482 78.46353912 C79.3373265 88.9767626 76.66800892 99.48819932 74 110 C58.82 110 43.64 110 28 110 C22.25472703 89.31701731 22.25472703 89.31701731 20.32104492 81.61889648 C20.09598267 80.73029938 19.87092041 79.84170227 19.63903809 78.92617798 C18.9174586 76.07499835 18.19886625 73.22307662 17.48046875 70.37109375 C16.97210052 68.35893496 16.46357808 66.34681513 15.95491028 64.33473206 C14.90066573 60.16269609 13.84783668 55.99030655 12.79614258 51.81762695 C11.44554536 46.45926364 10.09195766 41.10166116 8.73742199 35.74429226 C7.69250226 31.61061501 6.64879245 27.47663307 5.60549355 23.34254646 C5.10619326 21.36441559 4.60658958 19.38636128 4.10667992 17.40838432 C3.41392644 14.66635288 2.72272267 11.92393566 2.03198242 9.18139648 C1.82477066 8.36235336 1.6175589 7.54331024 1.40406799 6.69944763 C0 1.11444632 0 1.11444632 0 0 Z " fill="#2563EB" transform="translate(722,463)"/>
<path d="M0 0 C12.54 0 25.08 0 38 0 C38 38.61 38 77.22 38 117 C40.31 117 42.62 117 45 117 C44.45890819 125.23648761 42.78958241 133.09554817 40.9375 141.125 C39.968125 145.37375 38.99875 149.6225 38 154 C25.46 154 12.92 154 0 154 C0 115.72 0 77.44 0 38 C-2.64 38 -5.28 38 -8 38 C-7.45090018 29.79308787 -5.8245449 21.94570297 -4 13.9375 C-3.72671875 12.70322266 -3.4534375 11.46894531 -3.171875 10.19726562 C-1.13466151 1.13466151 -1.13466151 1.13466151 0 0 Z " fill="#2563EB" transform="translate(683,419)"/>
</svg>
